<mxfile host="app.diagrams.net" modified="2021-01-09T20:22:14.771Z" agent="5.0 (Windows NT 10.0; Win64; x64) AppleWebKit/537.36 (KHTML, like Gecko) Chrome/87.0.4280.141 Safari/537.36" etag="lwd1RAPnvwQpvsjtK9XB" version="14.1.4" type="github">
  <diagram id="0Kt7jfIghzjYdRk8JLpt" name="Page-1">
    <mxGraphModel dx="1986" dy="1007" grid="1" gridSize="10" guides="1" tooltips="1" connect="1" arrows="1" fold="1" page="1" pageScale="1" pageWidth="1169" pageHeight="827" math="0" shadow="0">
      <root>
        <mxCell id="0" />
        <mxCell id="1" parent="0" />
        <mxCell id="oYQP_AeqH_wm3ZssUs-Z-2" value="" style="rounded=1;whiteSpace=wrap;html=1;sketch=1;" vertex="1" parent="1">
          <mxGeometry x="300" y="360" width="610" height="80" as="geometry" />
        </mxCell>
        <mxCell id="oYQP_AeqH_wm3ZssUs-Z-3" value="&lt;font style=&quot;font-size: 45px&quot; face=&quot;Comic Sans MS&quot;&gt;Kafka&lt;/font&gt;" style="text;html=1;strokeColor=none;fillColor=none;align=center;verticalAlign=middle;whiteSpace=wrap;rounded=0;sketch=1;" vertex="1" parent="1">
          <mxGeometry x="160" y="390" width="40" height="20" as="geometry" />
        </mxCell>
        <mxCell id="oYQP_AeqH_wm3ZssUs-Z-5" value="" style="ellipse;whiteSpace=wrap;html=1;aspect=fixed;sketch=1;" vertex="1" parent="1">
          <mxGeometry x="350" y="375" width="50" height="50" as="geometry" />
        </mxCell>
        <mxCell id="oYQP_AeqH_wm3ZssUs-Z-6" value="" style="ellipse;whiteSpace=wrap;html=1;aspect=fixed;sketch=1;" vertex="1" parent="1">
          <mxGeometry x="505" y="375" width="50" height="50" as="geometry" />
        </mxCell>
        <mxCell id="oYQP_AeqH_wm3ZssUs-Z-7" value="" style="ellipse;whiteSpace=wrap;html=1;aspect=fixed;sketch=1;" vertex="1" parent="1">
          <mxGeometry x="655" y="375" width="50" height="50" as="geometry" />
        </mxCell>
        <mxCell id="oYQP_AeqH_wm3ZssUs-Z-8" value="&lt;font style=&quot;font-size: 30px&quot;&gt;Topics&lt;/font&gt;" style="text;html=1;strokeColor=none;fillColor=none;align=center;verticalAlign=middle;whiteSpace=wrap;rounded=0;sketch=1;" vertex="1" parent="1">
          <mxGeometry x="800" y="390" width="40" height="20" as="geometry" />
        </mxCell>
        <mxCell id="oYQP_AeqH_wm3ZssUs-Z-9" value="" style="rounded=1;whiteSpace=wrap;html=1;sketch=1;" vertex="1" parent="1">
          <mxGeometry x="325" y="90" width="100" height="60" as="geometry" />
        </mxCell>
        <mxCell id="oYQP_AeqH_wm3ZssUs-Z-10" value="&lt;font style=&quot;font-size: 45px&quot; face=&quot;Comic Sans MS&quot;&gt;Producer&lt;/font&gt;" style="text;html=1;strokeColor=none;fillColor=none;align=center;verticalAlign=middle;whiteSpace=wrap;rounded=0;sketch=1;" vertex="1" parent="1">
          <mxGeometry x="160" y="110" width="40" height="20" as="geometry" />
        </mxCell>
        <mxCell id="oYQP_AeqH_wm3ZssUs-Z-11" value="&lt;font style=&quot;font-size: 45px&quot;&gt;&lt;font face=&quot;Comic Sans MS&quot;&gt;Consumer&lt;/font&gt;&lt;br&gt;&lt;/font&gt;" style="text;html=1;strokeColor=none;fillColor=none;align=center;verticalAlign=middle;whiteSpace=wrap;rounded=0;sketch=1;" vertex="1" parent="1">
          <mxGeometry x="160" y="670" width="40" height="20" as="geometry" />
        </mxCell>
        <mxCell id="oYQP_AeqH_wm3ZssUs-Z-12" value="" style="rounded=1;whiteSpace=wrap;html=1;sketch=1;" vertex="1" parent="1">
          <mxGeometry x="480" y="90" width="100" height="60" as="geometry" />
        </mxCell>
        <mxCell id="oYQP_AeqH_wm3ZssUs-Z-13" value="" style="rounded=1;whiteSpace=wrap;html=1;sketch=1;" vertex="1" parent="1">
          <mxGeometry x="630" y="90" width="100" height="60" as="geometry" />
        </mxCell>
        <mxCell id="oYQP_AeqH_wm3ZssUs-Z-14" value="" style="endArrow=classic;html=1;exitX=0.5;exitY=1;exitDx=0;exitDy=0;entryX=0.5;entryY=0;entryDx=0;entryDy=0;sketch=1;" edge="1" parent="1" source="oYQP_AeqH_wm3ZssUs-Z-9" target="oYQP_AeqH_wm3ZssUs-Z-5">
          <mxGeometry width="50" height="50" relative="1" as="geometry">
            <mxPoint x="520" y="470" as="sourcePoint" />
            <mxPoint x="570" y="420" as="targetPoint" />
          </mxGeometry>
        </mxCell>
        <mxCell id="oYQP_AeqH_wm3ZssUs-Z-15" value="" style="endArrow=classic;html=1;exitX=0.5;exitY=1;exitDx=0;exitDy=0;entryX=0.5;entryY=0;entryDx=0;entryDy=0;sketch=1;" edge="1" parent="1" source="oYQP_AeqH_wm3ZssUs-Z-12" target="oYQP_AeqH_wm3ZssUs-Z-6">
          <mxGeometry width="50" height="50" relative="1" as="geometry">
            <mxPoint x="385" y="160" as="sourcePoint" />
            <mxPoint x="385" y="305" as="targetPoint" />
          </mxGeometry>
        </mxCell>
        <mxCell id="oYQP_AeqH_wm3ZssUs-Z-16" value="" style="endArrow=classic;html=1;exitX=0.5;exitY=1;exitDx=0;exitDy=0;entryX=0.5;entryY=0;entryDx=0;entryDy=0;sketch=1;" edge="1" parent="1" source="oYQP_AeqH_wm3ZssUs-Z-13" target="oYQP_AeqH_wm3ZssUs-Z-7">
          <mxGeometry width="50" height="50" relative="1" as="geometry">
            <mxPoint x="540" y="160" as="sourcePoint" />
            <mxPoint x="540" y="305" as="targetPoint" />
          </mxGeometry>
        </mxCell>
        <mxCell id="oYQP_AeqH_wm3ZssUs-Z-17" value="" style="rounded=1;whiteSpace=wrap;html=1;sketch=1;" vertex="1" parent="1">
          <mxGeometry x="325" y="640" width="100" height="60" as="geometry" />
        </mxCell>
        <mxCell id="oYQP_AeqH_wm3ZssUs-Z-18" value="" style="rounded=1;whiteSpace=wrap;html=1;sketch=1;" vertex="1" parent="1">
          <mxGeometry x="480" y="640" width="100" height="60" as="geometry" />
        </mxCell>
        <mxCell id="oYQP_AeqH_wm3ZssUs-Z-19" value="" style="rounded=1;whiteSpace=wrap;html=1;sketch=1;" vertex="1" parent="1">
          <mxGeometry x="630" y="640" width="100" height="60" as="geometry" />
        </mxCell>
        <mxCell id="oYQP_AeqH_wm3ZssUs-Z-20" value="" style="endArrow=classic;html=1;sketch=1;exitX=0.5;exitY=1;exitDx=0;exitDy=0;entryX=0.5;entryY=0;entryDx=0;entryDy=0;" edge="1" parent="1" source="oYQP_AeqH_wm3ZssUs-Z-5" target="oYQP_AeqH_wm3ZssUs-Z-17">
          <mxGeometry width="50" height="50" relative="1" as="geometry">
            <mxPoint x="425" y="410" as="sourcePoint" />
            <mxPoint x="375" y="545" as="targetPoint" />
          </mxGeometry>
        </mxCell>
        <mxCell id="oYQP_AeqH_wm3ZssUs-Z-21" value="" style="endArrow=classic;html=1;sketch=1;entryX=0.5;entryY=0;entryDx=0;entryDy=0;exitX=0.5;exitY=1;exitDx=0;exitDy=0;" edge="1" parent="1" source="oYQP_AeqH_wm3ZssUs-Z-6" target="oYQP_AeqH_wm3ZssUs-Z-18">
          <mxGeometry width="50" height="50" relative="1" as="geometry">
            <mxPoint x="560" y="500" as="sourcePoint" />
            <mxPoint x="550" y="520" as="targetPoint" />
          </mxGeometry>
        </mxCell>
        <mxCell id="oYQP_AeqH_wm3ZssUs-Z-22" value="" style="endArrow=classic;html=1;sketch=1;exitX=0.5;exitY=1;exitDx=0;exitDy=0;entryX=0.5;entryY=0;entryDx=0;entryDy=0;" edge="1" parent="1" source="oYQP_AeqH_wm3ZssUs-Z-7" target="oYQP_AeqH_wm3ZssUs-Z-19">
          <mxGeometry width="50" height="50" relative="1" as="geometry">
            <mxPoint x="679.4099999999999" y="415" as="sourcePoint" />
            <mxPoint x="679.4099999999999" y="579.9999999999998" as="targetPoint" />
          </mxGeometry>
        </mxCell>
        <mxCell id="oYQP_AeqH_wm3ZssUs-Z-23" value="" style="shape=message;html=1;whiteSpace=wrap;html=1;outlineConnect=0;sketch=1;" vertex="1" parent="1">
          <mxGeometry x="730" y="210" width="110" height="70" as="geometry" />
        </mxCell>
        <mxCell id="oYQP_AeqH_wm3ZssUs-Z-24" value="&lt;font style=&quot;font-size: 24px&quot; face=&quot;Comic Sans MS&quot;&gt;key - optional&lt;/font&gt;" style="text;html=1;strokeColor=none;fillColor=none;align=center;verticalAlign=middle;whiteSpace=wrap;rounded=0;sketch=1;" vertex="1" parent="1">
          <mxGeometry x="850" y="265" width="180" height="20" as="geometry" />
        </mxCell>
        <mxCell id="oYQP_AeqH_wm3ZssUs-Z-27" value="&lt;font style=&quot;font-size: 24px&quot; face=&quot;Comic Sans MS&quot;&gt;value&lt;/font&gt;" style="text;html=1;strokeColor=none;fillColor=none;align=center;verticalAlign=middle;whiteSpace=wrap;rounded=0;sketch=1;" vertex="1" parent="1">
          <mxGeometry x="850" y="205" width="180" height="20" as="geometry" />
        </mxCell>
        <mxCell id="oYQP_AeqH_wm3ZssUs-Z-28" value="&lt;font style=&quot;font-size: 24px&quot; face=&quot;Comic Sans MS&quot;&gt;timestamp&lt;/font&gt;" style="text;html=1;strokeColor=none;fillColor=none;align=center;verticalAlign=middle;whiteSpace=wrap;rounded=0;sketch=1;" vertex="1" parent="1">
          <mxGeometry x="850" y="235" width="180" height="20" as="geometry" />
        </mxCell>
      </root>
    </mxGraphModel>
  </diagram>
</mxfile>
